<?xml version="1.0" encoding="UTF-8" standalone="no"?>
<!-- Created with Inkscape (http://www.inkscape.org/) -->

<svg
   version="1.1"
   id="svg501"
   width="210mm"
   height="297mm"
   viewBox="0 0 238.11024 336.7559"
   sodipodi:docname="hunter.svg"
   inkscape:version="1.1 (c4e8f9ed74, 2021-05-24)"
   xmlns:inkscape="http://www.inkscape.org/namespaces/inkscape"
   xmlns:sodipodi="http://sodipodi.sourceforge.net/DTD/sodipodi-0.dtd"
   xmlns="http://www.w3.org/2000/svg"
   xmlns:svg="http://www.w3.org/2000/svg">
  <defs
     id="defs505" />
  <sodipodi:namedview
     id="namedview503"
     pagecolor="#ffffff"
     bordercolor="#666666"
     borderopacity="1.0"
     inkscape:pageshadow="2"
     inkscape:pageopacity="0.0"
     inkscape:pagecheckerboard="0"
     showgrid="false"
     inkscape:zoom="0.7405303"
     inkscape:cx="771.06906"
     inkscape:cy="513.14578"
     inkscape:window-width="1894"
     inkscape:window-height="1016"
     inkscape:window-x="13"
     inkscape:window-y="51"
     inkscape:window-maximized="1"
     inkscape:current-layer="g507"
     scale-x="0.3"
     units="mm"
     inkscape:document-units="mm" />
  <g
     inkscape:groupmode="layer"
     inkscape:label="Image"
     id="g507"
     transform="translate(0,257.55591)">
    <path
       style="fill:#000000;stroke-width:0.999998"
       d="M 64.177815,78.369951 C 63.62253,78.008341 62.627253,76.685481 61.966085,75.430261 C 60.823775,73.261601 60.903396,73.181411 63.566376,73.818521 C 67.296994,74.711061 67.868783,75.089281 67.868783,76.664501 C 67.868783,78.251861 65.603653,79.298491 64.177815,78.369951 Z M 72.285823,78.447161 C 71.526537,77.932041 71.864585,74.126151 73.41694,65.712471 C 76.746699,47.665462 79.637609,38.017812 83.45046,32.228281 C 88.51846,24.532888 88.19659,23.945148 80.87785,27.530608 C 78.407863,28.740648 75.850863,30.851591 75.195624,32.221581 C 72.392663,38.082072 69.513687,55.759431 69.514908,67.101981 C 69.515637,73.893121 69.194429,77.621811 68.7193,76.337431 C 67.939253,74.228751 64.262216,72.212471 61.196717,72.212471 C 60.348681,72.212471 59.884805,72.774971 60.165885,73.462471 C 60.446964,74.149971 60.993252,75.499971 61.37986,76.462471 C 61.766465,77.424971 61.640365,78.212471 61.099638,78.212471 C 60.090762,78.212471 54.313918,64.734451 49.419956,50.962472 C 47.385031,45.236042 46.201902,43.212472 44.888724,43.212472 C 42.245471,43.212472 40.355688,48.385062 41.926568,51.320292 C 43.821524,54.861051 51.908115,77.506521 51.443472,77.971171 C 51.216546,78.198091 50.459499,77.332721 49.761145,76.048121 L 48.491412,73.712471 L 47.892547,76.180691 C 47.385467,78.270631 46.730521,77.338001 43.619199,70.095531 C 41.598232,65.391171 39.428091,60.230471 38.796664,58.627311 C 37.736823,55.936421 37.585645,55.866131 36.829036,57.712471 C 35.423692,61.141901 35.79112,66.673341 37.81502,72.555921 C 39.80278,78.333461 39.62621,79.578351 37.260929,76.462471 C 36.011878,74.817051 35.930593,74.829001 35.90069,76.662471 C 35.875954,78.179141 35.602222,78.345801 34.668891,77.412471 C 33.199066,75.942641 28.86891,75.819591 28.86891,77.247651 C 28.86891,77.891881 28.207986,77.960631 27.118916,77.429711 C 26.156418,76.960491 22.277896,76.468311 18.499989,76.335981 C 10.876464,76.068951 1.0765462,72.916901 0.12001922,70.424231 C -0.73846778,68.187041 3.0910892,57.486711 8.9641502,45.712472 C 14.866141,33.880241 35.753645,2.7124678 37.781189,2.7124678 C 38.702382,2.7124678 39.62629,0.62604779 40.438105,-3.2875322 C 41.122644,-6.5875322 42.175047,-10.555502 42.776782,-12.105242 C 43.378516,-13.654972 43.591282,-16.671224 43.249597,-18.808014 C 42.349693,-24.435714 43.49395,-27.665514 47.820533,-31.710044 C 50.93758,-34.623884 51.769438,-36.215044 52.304817,-40.287523 L 52.962133,-45.287523 L 49.453039,-41.287523 C 47.523039,-39.087523 45.927051,-37.754443 45.906401,-38.325113 C 45.88575,-38.895793 48.183398,-41.595793 51.012284,-44.325113 C 53.918144,-47.128703 55.861055,-48.452223 55.478391,-47.367453 C 53.868554,-42.803883 52.854107,-36.402244 53.619484,-35.636874 C 54.076425,-35.179924 55.380187,-35.457394 56.516732,-36.253464 C 58.069116,-37.340803 58.715492,-39.160063 59.115061,-43.566583 C 59.654135,-49.511603 62.439977,-56.356823 65.279455,-58.713383 C 66.200278,-59.477603 65.639737,-57.611913 63.907337,-54.146483 C 62.296415,-50.924053 60.673752,-46.262523 60.301422,-43.787523 C 59.626711,-39.302503 59.631288,-39.293653 61.676447,-41.128993 C 63.700955,-42.945813 63.732723,-42.925833 64.048614,-39.637183 C 64.250864,-37.531643 64.965459,-36.191024 65.988719,-35.997434 C 67.395005,-35.731394 67.542264,-36.618883 67.105246,-42.726713 C 66.610047,-49.647873 68.231382,-58.787523 69.954377,-58.787523 C 70.408505,-58.787523 70.125016,-56.930953 69.324418,-54.661803 C 67.525615,-49.563433 67.567184,-42.420553 69.422618,-37.787523 C 70.597084,-34.854854 70.803794,-34.692764 70.697844,-36.787523 C 70.628305,-38.162523 70.807333,-39.962523 71.095678,-40.787523 C 71.384036,-41.612523 72.073364,-45.253773 72.627532,-48.879193 C 73.587159,-55.157233 77.381487,-65.608123 78.349664,-64.639943 C 78.600823,-64.388773 77.706046,-61.506733 76.36128,-58.235403 C 74.954315,-54.812793 73.906149,-50.241303 73.892498,-47.467973 C 73.870668,-43.036263 74.049818,-42.674133 76.118752,-42.967973 C 78.016555,-43.237503 78.466434,-44.087833 78.992801,-48.400323 C 79.78719,-54.908523 82.55274,-63.280383 84.42026,-64.830303 C 85.43171,-65.669733 85.25869,-64.662703 83.84073,-61.457133 C 80.17331,-53.166303 79.029882,-41.787523 81.86416,-41.787523 C 82.33752,-41.787523 82.99842,-44.375023 83.33282,-47.537523 C 84.06532,-54.465033 86.83057,-64.645913 88.21144,-65.499343 C 88.80673,-65.867253 88.94551,-65.430043 88.5558,-64.414483 C 84.12909,-52.878623 84.01988,-44.421073 88.18285,-35.534554 C 92.77083,-25.740784 93.41264,-25.688624 93.02132,-35.141294 C 92.83026,-39.756413 93.23459,-46.177313 93.91982,-49.409963 L 95.1657,-55.287523 L 96.32574,-50.251813 C 97.90249,-43.407123 98.62505,-42.340443 100.5837,-43.965983 C 101.80229,-44.977323 102.00343,-46.640063 101.55469,-51.992623 C 101.23567,-55.797903 101.39886,-58.997173 101.92869,-59.324623 C 102.44868,-59.645993 102.86866,-58.301003 102.86866,-56.314423 C 102.86866,-50.873803 105.2866,-45.971713 108.34932,-45.203013 C 109.78617,-44.842393 111.14932,-44.734873 111.37854,-44.964083 C 111.60776,-45.193303 111.1368,-47.568863 110.33197,-50.243113 C 109.52714,-52.917363 108.91841,-56.271373 108.97923,-57.696453 C 109.05275,-59.419423 109.5019,-58.612343 110.31983,-55.287523 C 112.19703,-47.656753 114.58524,-43.803873 118.43504,-42.195323 C 122.11583,-40.657383 123.18461,-39.235063 119.86861,-40.287523 C 118.76861,-40.636653 117.86862,-40.635553 117.86862,-40.285083 C 117.86862,-39.105963 124.0561,-30.641694 124.55404,-31.139644 C 125.39175,-31.977354 123.03045,-45.004003 120.93894,-51.083063 C 119.84714,-54.256463 119.32528,-56.623323 119.77926,-56.342743 C 120.63008,-55.816913 127.24412,-35.623064 128.31307,-30.287524 C 128.64364,-28.637524 128.9761,-25.618114 129.05186,-23.577714 C 129.23129,-18.745624 130.23938,-19.519544 132.93199,-26.556534 C 134.38387,-30.350974 135.16604,-34.734914 135.24671,-39.530273 C 135.31372,-43.513793 135.70606,-46.776293 136.11856,-46.780273 C 136.53105,-46.784263 136.86855,-45.762043 136.86855,-44.508673 C 136.86855,-43.255313 138.23991,-39.092813 139.91602,-35.258674 L 142.96348,-28.287524 L 142.6128,-34.287524 C 142.39374,-38.035293 141.26462,-42.458903 139.60479,-46.072143 C 136.73071,-52.328703 137.68612,-53.025603 140.7918,-46.937953 C 142.88875,-42.827583 144.96369,-33.105094 144.3701,-30.171204 C 142.51926,-21.023174 142.48132,-21.014664 140.33222,-29.265664 C 139.50407,-32.445154 138.55043,-35.493234 138.21301,-36.039194 C 137.45054,-37.272913 133.16758,-24.130914 132.0204,-17.037524 C 131.55342,-14.150032 131.35187,-11.787532 131.5725,-11.787532 C 131.79313,-11.787532 133.34242,-14.712527 135.01536,-18.287524 C 138.21801,-25.131464 139.333,-26.486204 138.2668,-22.238154 C 137.68122,-19.904974 137.84308,-19.743024 140.17557,-20.328444 C 144.18015,-21.333534 146.64033,-20.008984 147.90904,-16.164764 C 149.72237,-10.670272 148.34489,-4.1996022 144.80467,-1.5821922 C 142.49656,0.12426779 141.87501,1.3504578 141.89882,4.1505278 L 141.92909,7.7124678 L 145.37227,1.7124678 C 147.26601,-1.5875322 149.08814,-5.5250322 149.42144,-7.0375322 C 150.12895,-10.248232 150.66508,-10.423732 152.47645,-8.0375322 C 153.65693,-6.4824522 153.80844,-6.7052122 153.8367,-10.037532 C 153.87297,-14.314847 154.67005,-14.638477 158.0077,-11.731072 C 160.22852,-9.7965122 160.239,-9.7372322 158.18423,-10.731072 C 154.95706,-12.291962 154.91861,-12.232232 155.48361,-6.5375322 L 156.00447,-1.2875322 L 153.68649,-3.9879722 L 151.36851,-6.6884222 L 146.36853,2.5120278 L 141.36854,11.712468 L 140.86854,7.5071878 L 140.36854,3.3019078 L 135.5681,7.5071878 L 130.76766,11.712468 L 132.06811,18.212468 L 133.36856,24.712468 L 136.86855,24.745538 C 140.76685,24.782378 144.08228,26.350078 149.03895,30.500321 C 150.8702,32.033641 153.94349,34.283641 155.86849,35.500321 C 158.1604,36.948901 160.33696,39.711042 162.17429,43.502592 C 164.4545,48.208052 165.79685,49.689512 169.34003,51.410932 C 171.73799,52.575952 174.15794,54.470401 174.71769,55.620811 C 175.27744,56.771221 175.92022,62.290821 176.14611,67.886591 C 176.53581,77.540701 176.44976,78.089441 174.46261,78.622931 C 173.31082,78.932161 164.18149,79.191311 154.1752,79.198821 C 136.50089,79.212081 135.93757,79.149081 134.42527,76.989961 C 132.94822,74.881171 132.86208,74.868381 132.74177,76.739961 C 132.67202,77.824841 132.21592,75.787471 131.7282,72.212471 C 130.62914,64.156311 132.22231,50.481532 134.99031,44.212472 C 136.0831,41.737472 139.21328,37.613112 141.94626,35.047221 L 146.91531,30.381971 L 144.14192,28.428418 C 138.46439,24.429198 137.63771,24.635368 131.03068,31.698321 C 123.07241,40.205772 121.32687,45.585192 122.33656,58.492061 C 122.96389,66.511211 124.16946,72.202021 126.35538,77.462471 C 127.03748,79.103961 125.41734,79.211521 100.22566,79.197161 C 85.45436,79.188741 72.881442,78.851241 72.285823,78.447161 Z M 49.722046,41.510302 C 50.258023,40.552562 51.919785,39.787212 53.521724,39.760302 C 55.994551,39.718762 56.410203,39.282682 56.683626,36.443061 C 57.110499,32.009761 59.806866,30.472131 70.394975,28.623998 C 80.06054,26.936898 85.67071,24.532828 87.6749,21.219218 C 88.86291,19.255048 88.54622,18.558828 84.17491,13.524728 C 81.53152,10.480518 78.575723,7.0273978 77.606487,5.8511378 C 75.963202,3.8568578 75.774183,3.8306178 74.806795,5.4624678 C 74.236217,6.4249678 73.30393,7.2124678 72.735043,7.2124678 C 72.166154,7.2124678 73.142761,5.3917178 74.905275,3.1663578 C 76.667789,0.94098779 77.859816,-1.1297922 77.554216,-1.4353922 C 76.713889,-2.2757222 72.600052,-2.2112722 70.577884,-1.3261022 C 69.592887,-0.89494221 68.85868,-0.93487221 68.946309,-1.4148522 C 69.658337,-5.3151422 66.595097,-5.9332822 62.503659,-2.7149522 C 59.571787,-0.40873221 58.973765,-1.1410322 61.504923,-3.9379422 C 63.368692,-5.9973922 63.766418,-5.7508222 54.368827,-8.3619022 C 48.090675,-10.106262 45.868855,-11.335602 45.868855,-13.064962 C 45.868855,-13.632862 46.742813,-13.306582 47.810985,-12.339902 C 48.879155,-11.373212 50.341651,-10.817942 51.060974,-11.105962 C 51.959877,-11.465892 51.857588,-11.654322 50.733849,-11.708582 C 45.447941,-11.963822 44.200033,-25.154124 48.951754,-30.545214 L 51.368837,-33.287524 L 48.699252,-30.938744 C 44.662351,-27.386974 43.310279,-23.332264 44.578462,-18.580994 C 45.406618,-15.478294 45.32112,-13.996842 44.18214,-11.713702 C 43.383389,-10.112562 42.239861,-5.8454422 41.640968,-2.2312222 C 40.827869,2.6756878 39.829745,5.1133478 37.700236,7.3929978 C 33.138033,12.276878 33.104274,14.438678 37.447361,23.586788 C 39.569088,28.055908 41.575532,32.058591 41.906123,32.481641 C 42.236714,32.904681 43.906902,31.104681 45.617651,28.481638 C 47.328401,25.858588 51.009765,21.165348 53.798459,18.052208 C 56.587154,14.939068 58.868812,12.126568 58.868812,11.802208 C 58.868812,11.477848 57.968815,11.212468 56.868819,11.212468 C 55.768823,11.212468 54.868825,10.871728 54.868825,10.455258 C 54.868825,10.038798 56.89244,9.8589978 59.365747,10.055708 C 61.839053,10.252418 63.612489,10.818168 63.306716,11.312918 C 63.000944,11.807668 62.112699,12.212468 61.33284,12.212468 C 59.227811,12.212468 57.173424,16.089958 56.409616,21.504668 C 55.973206,24.598428 54.752892,27.433758 52.966455,29.504671 C 47.408075,35.948151 44.859766,40.496592 46.022907,41.898092 C 47.490608,43.666572 48.579204,43.552452 49.722046,41.510302 Z M 56.939103,5.5214878 C 56.900446,4.3164478 57.318817,3.0523878 57.868816,2.7124678 C 59.051595,1.9814678 59.051595,2.9599878 57.868816,5.7124678 C 57.040227,7.6407078 57.006868,7.6338478 56.939103,5.5214878 Z M 52.675388,3.1890378 C 54.493987,2.0802578 56.613866,-0.28056221 57.38623,-2.0572222 C 58.611309,-4.8752722 58.795524,-4.9905622 58.829671,-2.9606122 C 58.875951,-0.20931221 53.80802,5.2140778 51.195761,5.2087278 C 49.913207,5.2061078 50.354088,4.6042978 52.675388,3.1890378 Z M 112.24766,20.206198 C 117.1311,19.126548 121.71755,17.752788 122.43979,17.153388 C 123.2047,16.518568 123.73726,14.041638 123.7154,11.220518 L 123.6779,6.3774578 L 119.06023,9.3059078 C 116.5205,10.916558 111.27592,13.215578 107.40561,14.414838 C 99.4928,16.866708 97.31838,18.336018 98.20055,20.634928 C 98.983,22.673948 101.42228,22.599498 112.24766,20.206198 Z M 101.5068,14.646428 C 115.33818,10.641418 118.77452,8.7616878 125.68343,1.4214878 C 130.88936,-4.1094322 131.88194,-4.8122722 131.33592,-2.5810522 C 130.77829,-0.30238221 131.0465,0.21901779 133.0327,0.71752779 C 135.56893,1.3540778 142.26511,-1.0059722 145.11853,-3.5421022 C 147.4615,-5.6245422 147.58686,-15.926324 145.2971,-18.216094 C 143.43051,-20.082684 143.88571,-20.038074 140.11586,-18.723894 C 138.01529,-17.991624 135.76796,-15.655074 132.90227,-11.223902 C 130.61291,-7.6839022 128.29222,-4.7875322 127.74518,-4.7875322 C 127.19813,-4.7875322 127.05339,-5.2775422 127.42354,-5.8764422 C 127.79368,-6.4753422 128.69882,-9.2878422 129.43496,-12.126442 C 130.52768,-16.339994 130.53242,-16.966234 129.46075,-15.537524 C 127.21846,-12.548172 126.65085,-13.573882 127.24719,-19.537524 C 127.56341,-22.700024 127.43435,-27.087524 126.96037,-29.287524 L 126.09859,-33.287524 L 125.98359,-29.537524 C 125.86053,-25.524684 124.44078,-24.491494 123.57884,-27.787524 C 122.92059,-30.304724 121.19039,-30.376744 120.41046,-27.919404 C 119.75832,-25.864654 115.84947,-21.932554 115.90043,-23.382534 C 115.91792,-23.880284 116.59292,-25.161034 117.40042,-26.228654 C 119.47529,-28.971884 119.26796,-31.787524 116.99106,-31.787524 C 115.95841,-31.787524 114.55332,-32.462524 113.86862,-33.287524 C 113.18394,-34.112524 111.9341,-34.787524 111.09121,-34.787524 C 109.72574,-34.787524 109.72252,-34.596734 111.06165,-33.037524 C 113.4193,-30.292394 113.82599,-28.216954 112.76162,-24.362124 C 111.88181,-21.175734 111.41292,-20.787524 108.44409,-20.787524 C 104.74153,-20.787524 103.36146,-21.975884 102.34066,-26.043114 C 101.80342,-28.183634 102.00577,-28.787524 103.26025,-28.787524 C 104.14488,-28.787524 104.86866,-29.462524 104.86866,-30.287524 C 104.86866,-32.407584 104.12526,-32.167444 101.32092,-29.141504 C 98.55335,-26.155234 98.02284,-27.566964 100.49484,-31.339734 C 102.03702,-33.693394 102.0241,-33.785214 100.24484,-33.117324 C 98.61549,-32.505704 98.54225,-32.626614 99.68807,-34.036374 C 101.53726,-36.311514 99.47187,-40.178523 96.78306,-39.475383 C 94.72765,-38.937883 94.07009,-40.354653 96.06617,-41.020013 C 96.95943,-41.317773 96.9991,-42.291603 96.22232,-44.853353 L 95.18098,-48.287523 L 94.41191,-42.555883 C 93.98891,-39.403473 94.0646,-33.890974 94.5801,-30.305884 C 95.0956,-26.720784 95.19983,-23.787524 94.81172,-23.787524 C 93.57537,-23.787524 88.87649,-30.573014 86.34004,-36.021204 L 83.88827,-41.287523 L 83.72297,-36.787523 C 83.45594,-29.517784 83.85147,-27.347914 85.63691,-26.287524 C 86.56298,-25.737524 88.79397,-23.870024 90.59468,-22.137524 C 93.412,-19.426914 93.86817,-18.311004 93.86495,-14.137532 C 93.86261,-11.092892 93.1346,-8.0958222 91.90918,-6.0860822 C 89.7829,-2.5988322 84.49701,0.66753779 82.32734,-0.16504221 C 81.57886,-0.45226221 79.96002,0.12771779 78.729912,1.1238078 L 76.49335,2.9348678 L 82.88485,10.073668 C 86.40018,14.000008 90.0343,17.212468 90.96066,17.212468 C 91.88703,17.212468 96.63279,16.057748 101.5068,14.646428 Z M 133.97788,-2.5844322 C 132.33815,-3.1310022 132.63092,-6.7591022 134.36857,-7.4259022 C 135.19356,-7.7424922 135.86856,-9.2187422 135.86856,-10.706462 C 135.86856,-12.544182 136.81739,-14.112922 138.82806,-15.599464 C 142.4836,-18.302134 143.50573,-18.333954 144.86853,-15.787524 C 145.50159,-14.604647 145.55001,-13.787532 144.98705,-13.787532 C 144.46353,-13.787532 143.85821,-14.318487 143.6419,-14.967434 C 143.41085,-15.660564 142.5049,-15.861964 141.44595,-15.455604 C 139.98384,-14.894544 139.87446,-14.485327 140.86693,-13.289472 C 141.53993,-12.478552 141.91194,-10.284962 141.69361,-8.4148322 C 141.37443,-5.6808522 141.59761,-5.1270022 142.83258,-5.5882922 C 144.11875,-6.0686922 144.15955,-5.9047322 143.0835,-4.5800822 C 141.84227,-3.0520922 136.25107,-1.8266922 133.97788,-2.5844322 Z M 139.33208,-5.7472422 C 141.43658,-8.0727022 140.70596,-12.787532 138.24109,-12.787532 C 137.05202,-12.787532 136.80724,-12.167982 137.26915,-10.327542 C 137.73064,-8.4888422 137.37918,-7.5959922 135.87757,-6.7923522 C 134.77261,-6.2010022 133.86856,-5.2830022 133.86856,-4.7523522 C 133.86856,-3.0574322 137.49556,-3.7179022 139.33208,-5.7472422 Z M 129.15833,10.212468 C 129.44599,9.1124678 129.27347,8.2124678 128.77496,8.2124678 C 128.27645,8.2124678 127.86858,8.4006678 127.86858,8.6306778 C 127.86858,8.8606978 127.59545,9.7606978 127.26159,10.630678 C 126.92776,11.500668 127.10027,12.212468 127.64496,12.212468 C 128.18967,12.212468 128.87067,11.312468 129.15833,10.212468 Z M 131.86857,2.6232878 C 131.86857,1.9650278 131.08501,1.1257678 130.12734,0.75826779 C 127.76102,-0.14977221 124.86859,3.5690078 124.86859,7.5194178 V 10.604798 L 128.36858,7.2124678 C 130.29358,5.3466878 131.86857,3.2815578 131.86857,2.6232878 Z M 137.30564,4.2985278 C 140.56872,0.86993779 140.20086,0.47213779 135.84854,2.7228178 C 133.27384,4.0542478 130.86858,6.9324278 130.86858,8.6819078 C 130.86858,9.7819578 134.33061,7.4244478 137.30564,4.2985278 Z M 87.65192,-3.3482322 C 92.47626,-6.7273422 94.0243,-13.086002 91.49587,-19.137404 C 90.41043,-21.735254 88.99744,-22.852644 84.74589,-24.475294 L 79.368741,-26.527554 L 76.083952,-23.657544 C 74.277327,-22.079034 71.946975,-20.787524 70.905403,-20.787524 C 68.393471,-20.787524 65.597821,-23.679334 66.169239,-25.686604 C 66.419887,-26.567104 66.792336,-27.893274 66.996876,-28.633624 C 67.201425,-29.373984 66.375668,-30.364814 65.161849,-30.835474 C 63.123695,-31.625774 63.028098,-31.498734 63.911854,-29.174274 C 66.319458,-22.841764 64.361605,-14.893534 59.440653,-11.022702 L 56.972543,-9.0812822 L 68.670641,-5.5515522 C 82.14602,-1.4855422 84.58788,-1.2021022 87.65192,-3.3482322 Z M 80.5054,-5.8586922 C 75.122464,-10.092922 78.786172,-18.027014 84.61415,-14.756594 C 87.92104,-12.900902 89.76214,-8.4322722 88.22818,-5.9847622 C 86.65172,-3.4694222 83.60606,-3.4197122 80.5054,-5.8586922 Z M 87.40384,-5.8443722 C 88.52205,-7.6536722 86.94569,-11.690992 84.49375,-13.297572 C 79.29666,-16.702834 76.538779,-10.765452 81.50359,-6.8601122 C 84.40991,-4.5739922 86.4063,-4.2303122 87.40384,-5.8443722 Z M 60.356688,-13.774882 C 63.304832,-16.852084 64.583942,-22.821184 63.122898,-26.683684 C 62.394237,-28.610024 62.231449,-28.085554 62.292661,-24.008874 C 62.374775,-18.540024 60.100064,-14.263192 56.004714,-12.186492 C 52.762641,-10.542472 52.513126,-9.9968822 55.241904,-10.518522 C 56.585166,-10.775302 58.886819,-12.240662 60.356688,-13.774882 Z M 56.324018,-13.408712 C 60.439472,-14.987954 62.336802,-25.246644 59.312107,-29.565014 C 55.361903,-35.204744 46.868852,-29.654504 46.868852,-21.433304 C 46.868852,-14.485387 50.686469,-11.245372 56.324018,-13.408712 Z M 74.562996,-24.210764 L 77.368747,-26.634004 L 74.553656,-27.710764 C 70.633044,-29.210384 69.121178,-29.060954 68.003262,-27.063344 C 66.846237,-24.995844 68.272232,-21.787524 70.348195,-21.787524 C 71.123168,-21.787524 73.019831,-22.877984 74.562996,-24.210764 Z M 110.72059,-24.875294 C 111.05866,-27.187094 110.99698,-27.213644 109.15694,-25.548434 C 107.69462,-24.225044 106.96457,-24.091604 106.07166,-24.984514 C 105.42835,-25.627834 104.64806,-25.900264 104.33771,-25.589904 C 103.36877,-24.620974 106.7481,-21.947044 108.60378,-22.214344 C 109.60501,-22.358564 110.52092,-23.509914 110.72059,-24.875294 Z M 78.368744,-30.717884 C 78.368744,-33.005564 76.169801,-33.046724 75.574472,-30.770184 C 75.161034,-29.189214 75.438164,-28.750534 76.697139,-28.992994 C 77.616526,-29.170054 78.368744,-29.946254 78.368744,-30.717884 Z M 60.303268,-31.859944 C 58.451956,-33.905624 58.459633,-33.928204 60.898279,-33.609944 C 62.257064,-33.432614 63.593796,-33.737524 63.868796,-34.287524 C 64.143795,-34.837524 62.942327,-35.425844 61.198866,-35.594914 C 58.878475,-35.819924 58.086226,-35.511954 58.242706,-34.445794 C 58.468853,-32.904944 60.746575,-29.787524 61.646235,-29.787524 C 61.939133,-29.787524 61.334798,-30.720114 60.303268,-31.859944 Z M 74.619046,-31.536994 C 75.165805,-33.179124 72.032575,-34.351334 70.688684,-33.007434 C 70.113585,-32.432334 69.960786,-31.447664 70.349145,-30.819284 C 71.232687,-29.389674 74.062448,-29.865314 74.619046,-31.536994 Z M 68.86878,-33.287524 C 68.86878,-34.112524 68.193782,-34.787524 67.368784,-34.787524 C 66.543788,-34.787524 65.86879,-34.112524 65.86879,-33.287524 C 65.86879,-32.462524 66.543788,-31.787524 67.368784,-31.787524 C 68.193782,-31.787524 68.86878,-32.462524 68.86878,-33.287524 Z M 114.21319,-37.537523 C 113.35884,-39.600023 112.2017,-41.850023 111.64179,-42.537523 C 110.4266,-44.029593 107.86865,-44.201033 107.86865,-42.790403 C 107.86865,-41.877273 114.66664,-33.787524 115.43397,-33.787524 C 115.61689,-33.787524 115.06755,-35.475024 114.21319,-37.537523 Z M 117.65746,-38.117363 C 115.14403,-42.054713 113.10427,-43.129373 114.96194,-39.537523 C 116.40293,-36.751333 119.05997,-33.645544 119.56798,-34.153564 C 119.77605,-34.361624 118.91631,-36.145344 117.65746,-38.117363 Z M 73.55187,-36.975023 C 73.232651,-37.772753 72.995692,-37.535803 72.947712,-36.370854 C 72.904292,-35.316694 73.140631,-34.726064 73.47293,-35.058354 C 73.805219,-35.390654 73.840738,-36.253154 73.55187,-36.975023 Z M 76.868748,-38.370853 C 76.868748,-40.803963 76.46751,-41.813893 75.618752,-41.517113 C 74.459416,-41.111733 74.371267,-39.046313 75.384873,-36.037524 C 76.17519,-33.691564 76.868748,-34.782154 76.868748,-38.370853 Z M 103.34276,-38.037523 C 102.51385,-41.971463 101.73233,-42.939323 100.16624,-41.971433 C 99.30057,-41.436413 99.53176,-40.368023 101.0228,-38.013073 C 103.60733,-33.931064 104.2067,-33.937384 103.34276,-38.037523 Z M 80.16143,-38.776273 C 79.87539,-39.870093 79.242521,-40.518533 78.755052,-40.217263 C 77.342267,-39.344113 77.729936,-36.787523 79.275121,-36.787523 C 80.18652,-36.787523 80.49846,-37.487473 80.16143,-38.776273 Z M 107.59782,-37.391693 C 107.26552,-37.723983 106.40302,-37.759503 105.68116,-37.470633 C 104.88343,-37.151413 105.12038,-36.914453 106.28532,-36.866473 C 107.33948,-36.823053 107.93011,-37.059393 107.59782,-37.391693 Z M 107.86865,-39.353263 C 107.86865,-40.655053 105.72453,-43.787523 104.83348,-43.787523 C 103.74295,-43.787523 103.515,-40.474513 104.53533,-39.454193 C 105.34672,-38.642803 107.86865,-38.566443 107.86865,-39.353263 Z M 164.54872,-8.1784022 C 164.23696,-8.9908122 163.47152,-13.383092 162.84773,-17.939014 C 162.22394,-22.494944 161.06752,-27.768734 160.27789,-29.658564 C 158.59569,-33.684684 158.92317,-34.363814 161.8035,-32.822304 C 162.96196,-32.202304 164.31608,-31.946134 164.81267,-32.253034 C 165.64274,-32.766054 169.86844,-27.817374 169.86844,-26.332264 C 169.86844,-25.976674 168.40596,-26.767254 166.61846,-28.089104 C 161.18993,-32.103484 160.75392,-32.219044 161.8429,-29.354794 C 163.0107,-26.283234 166.08368,-7.6694222 165.51659,-7.1023322 C 165.29601,-6.8817522 164.86047,-7.3659822 164.54872,-8.1784022 Z M 162.95947,-34.177874 C 161.75283,-35.631784 162.3127,-35.787524 168.74601,-35.787524 C 172.66334,-35.787524 175.86843,-36.131034 175.86843,-36.550873 C 175.86843,-37.687753 168.99018,-47.859733 165.98497,-51.167133 C 163.9293,-53.429503 163.79717,-53.816423 165.36846,-52.972203 C 166.46846,-52.381203 168.94345,-49.596723 170.86845,-46.784473 C 172.79344,-43.972223 175.65254,-40.122443 177.22201,-38.229403 L 180.07559,-34.787524 H 172.55537 C 167.93534,-34.787524 164.89248,-34.359584 164.66525,-33.677874 C 164.43385,-32.983684 163.7952,-33.170884 162.95947,-34.177874 Z M 43.429796,-36.595533 C 42.735672,-38.782533 44.385346,-47.243103 45.984613,-49.698243 C 46.824883,-50.988193 46.885182,-50.910843 46.304771,-49.287523 C 45.911471,-48.187523 45.493574,-44.691103 45.37611,-41.517703 C 45.145892,-35.298084 44.42235,-33.468274 43.429796,-36.595533 Z M 48.336055,-54.724113 C 49.171265,-56.339233 50.307817,-57.940793 50.861726,-58.283133 C 51.415637,-58.625463 51.868835,-59.383083 51.868835,-59.966733 C 51.868835,-60.648133 49.66828,-60.868733 45.719975,-60.583133 L 39.571114,-60.138363 L 42.469986,-62.471033 C 45.370443,-64.804983 50.733018,-66.771463 54.225816,-66.781953 C 55.464574,-66.785673 55.89117,-67.286903 55.507197,-68.287523 C 54.723912,-70.328743 55.54063,-70.171193 58.09919,-67.787523 L 60.245931,-65.787523 H 56.706604 C 52.897901,-65.787523 46.992579,-64.108043 45.368856,-62.563063 C 44.182257,-61.433993 54.438133,-61.999263 57.118818,-63.210673 C 58.081315,-63.645633 58.868812,-63.613213 58.868812,-63.138623 C 58.868812,-62.664043 57.492546,-61.666553 55.810441,-60.921973 C 54.128337,-60.177403 51.593547,-57.817553 50.177573,-55.677863 C 47.131234,-51.074513 46.199149,-50.591773 48.336055,-54.724113 Z M 167.92986,-55.888453 C 166.58864,-56.424243 163.98219,-56.919343 162.13778,-56.988683 C 160.29336,-57.058023 158.50935,-57.559613 158.1733,-58.103343 C 157.78813,-58.726553 159.18964,-58.893383 161.9654,-58.554733 L 166.36846,-58.017533 L 162.36848,-59.876303 C 160.16848,-60.898633 157.69349,-61.753773 156.86849,-61.776613 C 153.36149,-61.873723 158.55625,-63.753463 164.07385,-64.383883 L 169.77923,-65.035763 L 162.57386,-69.951213 C 155.89912,-74.504673 154.96814,-74.849693 149.93214,-74.636193 C 146.94215,-74.509433 144.35035,-74.842053 144.17259,-75.375353 C 143.79051,-76.521583 149.00248,-79.787523 151.21379,-79.787523 C 152.05897,-79.787523 153.06945,-80.303653 153.45931,-80.934463 C 154.18941,-82.115793 147.94064,-81.692923 143.11853,-80.234683 C 141.01186,-79.597603 140.86854,-79.848343 140.86854,-84.170893 C 140.86854,-86.710043 140.41854,-88.787523 139.86854,-88.787523 C 139.31855,-88.787523 138.86855,-87.887523 138.86855,-86.787523 C 138.86855,-83.626083 137.55375,-84.431953 135.06854,-89.116623 C 133.80543,-91.497623 130.05059,-96.110123 126.72444,-99.366623 L 120.6769,-105.28752 L 121.34509,-99.787523 C 121.71259,-96.762523 122.26848,-93.387523 122.5804,-92.287523 C 122.90639,-91.137923 121.16178,-92.490533 118.47734,-95.468653 C 115.90872,-98.318273 110.96469,-102.23937 107.4906,-104.1822 C 104.0165,-106.12503 100.55068,-108.46575 99.78878,-109.3838 C 98.52038,-110.91212 98.34713,-110.85191 97.73576,-108.67025 C 97.21586,-106.81502 97.05393,-107.17306 97.00432,-110.28752 L 96.94061,-114.28752 L 99.15464,-111.68141 C 100.37235,-110.24805 104.29366,-107.39645 107.86865,-105.34452 C 111.44364,-103.29259 115.71862,-100.32192 117.36861,-98.743023 L 120.36861,-95.872313 L 120.02034,-102.01735 L 119.67208,-108.1624 L 127.52031,-99.848463 C 131.83685,-95.275793 135.94372,-90.578943 136.6467,-89.411023 C 137.77628,-87.534313 137.8925,-87.897733 137.64669,-92.538143 C 137.49371,-95.425993 137.66375,-97.788493 138.02455,-97.788143 C 139.10451,-97.787123 141.86853,-88.681463 141.86853,-85.124723 V -81.818193 L 147.71915,-82.429703 C 151.49682,-82.824553 154.95136,-82.571193 157.46912,-81.714653 L 161.36847,-80.388083 L 156.04959,-79.586113 C 153.12421,-79.145033 149.74923,-78.227043 148.54962,-77.546153 C 146.56693,-76.420763 146.86881,-76.255803 151.86851,-75.732653 C 156.15725,-75.283883 158.82032,-74.180483 163.96099,-70.722333 C 167.58686,-68.283193 171.41184,-65.751493 172.46096,-65.096333 C 174.09527,-64.075723 173.6524,-63.894763 169.36845,-63.832683 C 166.61846,-63.792823 163.34304,-63.485493 162.08973,-63.149723 C 160.06701,-62.607813 160.34787,-62.290193 164.58972,-60.322513 C 171.49479,-57.119443 174.35578,-53.321463 167.92986,-55.888453 Z M 102.63271,-62.738283 C 95.05694,-65.143863 89.86871,-70.433733 89.86871,-75.752343 C 89.86871,-78.264343 89.46699,-78.787523 87.53819,-78.787523 C 86.25641,-78.787523 83.10642,-77.723733 80.53822,-76.423533 C 77.970015,-75.123343 75.868752,-74.282723 75.868752,-74.555503 C 75.868752,-74.828273 76.805659,-76.567413 77.950765,-78.420233 C 82.12337,-85.171683 87.02558,-86.516213 92.05107,-82.287523 C 95.79358,-79.138403 97.08708,-79.082903 95.932,-82.121003 C 94.83129,-85.016093 95.61656,-86.360973 99.20413,-87.724963 C 102.8037,-89.093523 106.38095,-89.062253 111.36864,-87.618613 L 115.36863,-86.460853 L 109.86748,-85.313143 C 106.84186,-84.681893 103.46687,-83.644083 102.36751,-83.006883 C 100.63899,-82.005023 100.98956,-81.844233 104.95973,-81.817933 C 114.56658,-81.754303 124.11509,-76.846273 128.17512,-69.884983 C 129.16871,-68.181383 129.75377,-66.787523 129.47525,-66.787523 C 129.19673,-66.787523 126.97412,-68.133753 124.53613,-69.779133 C 114.40775,-76.614723 99.82557,-80.953853 97.83052,-77.725773 C 95.65773,-74.210123 103.02327,-66.986033 111.36864,-64.447653 C 114.11863,-63.611203 115.46862,-62.890533 114.36863,-62.846173 C 113.26863,-62.801813 110.79364,-62.563913 108.86865,-62.317523 C 106.94365,-62.071123 104.13748,-62.260463 102.63271,-62.738283 Z M 103.6196,-66.730523 C 99.14516,-69.568133 95.86869,-74.009813 95.86869,-77.237863 C 95.86869,-79.080303 93.75588,-79.274723 92.0687,-77.587523 C 87.97095,-73.489763 97.15296,-63.954173 105.31444,-63.831723 C 108.17634,-63.788783 108.12809,-63.871313 103.6196,-66.730523 Z M 120.64387,-75.163293 C 116.24852,-79.048603 110.98889,-80.823163 104.25264,-80.693563 L 99.36868,-80.599593 L 106.11978,-79.256423 C 109.83289,-78.517683 115.23287,-76.585013 118.11975,-74.961593 C 124.87484,-71.162913 125.14497,-71.184503 120.64387,-75.163293 Z M 87.85542,-79.617403 C 92.13531,-79.209243 92.96862,-80.232083 90.11871,-82.395483 C 87.35405,-84.494163 84.46294,-84.017203 81.55582,-80.982803 C 78.188914,-77.468493 78.094205,-76.233923 81.35544,-78.370773 C 82.95663,-79.419913 85.27128,-79.863843 87.85542,-79.617403 Z M 101.0945,-83.783783 C 102.89528,-84.881733 105.49366,-85.810253 106.86865,-85.847173 L 109.36864,-85.914303 L 106.86865,-86.922973 C 103.25045,-88.382823 96.86868,-86.356223 96.86868,-83.747383 C 96.86868,-81.319073 97.05464,-81.320673 101.0945,-83.783783 Z M 48.80613,-80.265573 C 47.190629,-83.828493 45.868855,-87.150463 45.868855,-87.647733 C 45.868855,-88.144993 47.556349,-87.949633 49.618842,-87.213583 C 53.180263,-85.942603 68.86878,-85.205353 68.86878,-86.308963 C 68.86878,-86.595753 67.771173,-88.508253 66.429658,-90.558963 C 65.088138,-92.609673 63.680155,-95.637523 63.300807,-97.287523 C 62.621362,-100.24281 62.666482,-100.224 66.328148,-96.025493 C 68.372541,-93.681373 70.881543,-91.315873 71.903705,-90.768823 C 73.686529,-89.814683 73.682709,-89.953893 71.809885,-94.187723 C 70.736123,-96.615173 69.560228,-101.44617 69.196798,-104.92329 L 68.53602,-111.24531 L 71.822265,-108.4801 C 75.637543,-105.26975 78.639132,-103.63326 86.02854,-100.73472 L 91.3687,-98.640013 L 87.92254,-102.21377 C 86.02716,-104.17933 84.72251,-105.78752 85.02333,-105.78752 C 86.61755,-105.78752 92.72355,-103.23449 95.11869,-101.56648 L 97.86868,-99.651333 L 97.93558,-102.46943 C 97.9919,-104.84229 98.22649,-104.57657 99.4204,-100.78752 C 100.20024,-98.312523 100.84514,-96.177993 100.85349,-96.044133 C 100.86184,-95.910263 98.80921,-97.372763 96.29209,-99.294133 C 89.9907,-104.1041 88.90692,-103.66724 93.43428,-98.142173 C 95.52787,-95.587233 96.81956,-93.696393 96.30474,-93.940313 C 81.54829,-100.93183 75.148764,-104.20871 73.092591,-105.8261 C 71.701556,-106.92029 70.397814,-107.6499 70.195376,-107.44745 C 69.380938,-106.63302 72.267023,-95.990693 74.509976,-91.537523 C 75.825832,-88.925023 76.50957,-86.787523 76.029402,-86.787523 C 75.549223,-86.787523 72.998131,-88.435463 70.360295,-90.449603 L 65.564231,-94.111683 L 67.466504,-90.825603 C 68.512751,-89.018263 70.156275,-87.037073 71.118767,-86.422973 C 72.081264,-85.808873 72.869022,-85.077173 72.869331,-84.796983 C 72.870402,-83.848323 53.388415,-84.626913 50.618839,-85.686213 C 47.126063,-87.022123 47.082826,-86.017813 50.332605,-79.037523 C 51.676924,-76.150023 52.544303,-73.787523 52.260114,-73.787523 C 51.975924,-73.787523 50.421631,-76.702643 48.80613,-80.265573 Z"
       id="path1027" />
  </g>
</svg>
